<svg id="background-svg" data-name="Layer 1" xmlns="http://www.w3.org/2000/svg" viewBox="0 0 1848.71 388"><defs><style>.cls-0{fill:transparent;stroke:transparent;}.cls-2{fill:#ff725c;}.cls-3{fill:#ff4b00;}.cls-4{fill:#ff4b6a;}.cls-5{fill:#f40038;}.cls-6{fill:#ff0784;}.cls-7{fill:#db0056;}.cls-8{fill:#f400a7;}.cls-9{fill:#b5006e;}.cls-10{fill:#cf00d0;}.cls-11{fill:#83007d;}.cls-12{fill:#8323fa;}.cls-13{fill:#431280;}</style></defs><title>Colorful Mountains background</title><rect class="cls-0" x="149.71" width="1600" height="385"/><polygon class="cls-2" points="486.13 0 149.71 385 839.45 385 486.13 0"/><polygon class="cls-3" points="486.13 0 418.44 385 839.45 385 486.13 0"/><polygon class="cls-4" points="0 387.7 291.44 145.68 557.44 387.7 0 387.7"/><polygon class="cls-5" points="248.84 387.7 293.29 145.68 597.86 387.7 248.84 387.7"/><polygon class="cls-6" points="1367.71 34 1716.71 388 1040.71 388 1367.71 34"/><polygon class="cls-7" points="1367.71 34 1716.71 388 1326.71 388 1367.71 34"/><polygon class="cls-8" points="729.6 171.5 922.84 387.7 513.49 387.7 729.6 171.5"/><polygon class="cls-9" points="686.49 387.7 730.22 170.8 928.59 387.7 686.49 387.7"/><polygon class="cls-10" points="1859.71 388 1550.71 120 1245.71 388 1859.71 388"/><polygon class="cls-11" points="1859.71 388 1550.71 120 1514.71 388 1859.71 388"/><polygon class="cls-12" points="1359.71 388 1120.71 127 874.71 388 1359.71 388"/><polygon class="cls-13" points="1092.71 388 1359.71 388 1120.71 127 1092.71 388"/></svg>