<svg id="background-svg" data-name="Layer 1" xmlns="http://www.w3.org/2000/svg" viewBox="0 0 1848.71 900"><defs><style>.cls-0{fill:transparent;stroke:transparent;}.cls-2{fill:#ff725c;}.cls-3{fill:#ff4b00;}.cls-4{fill:#ff4b6a;}.cls-5{fill:#f40038;}.cls-6{fill:#ff0784;}.cls-7{fill:#db0056;}.cls-8{fill:#f400a7;}.cls-9{fill:#b5006e;}.cls-10{fill:#cf00d0;}.cls-11{fill:#83007d;}.cls-12{fill:#8323fa;}.cls-13{fill:#431280;}</style></defs><title>Flat-Mountains</title><rect class="cls-0" x="138.71" width="1600" height="900"/><polygon class="cls-2" points="486.13 515 149.71 900 839.45 900 486.13 515"/><polygon class="cls-3" points="486.13 515 418.45 900 839.45 900 486.13 515"/><polygon class="cls-4" points="0 900.24 291.44 658.68 557.44 900.24 0 900.24"/><polygon class="cls-5" points="248.84 900.24 293.29 658.68 597.86 900.24 248.84 900.24"/><polygon class="cls-6" points="1367.71 546 1716.71 900 1040.71 900 1367.71 546"/><polygon class="cls-7" points="1367.71 546 1716.71 900 1326.71 900 1367.71 546"/><polygon class="cls-8" points="729.61 686.5 922.84 902.7 513.49 902.7 729.61 686.5"/><polygon class="cls-9" points="686.49 902.7 730.22 685.8 928.59 902.7 686.49 902.7"/><polygon class="cls-10" points="1859.71 900 1550.71 632 1245.71 900 1859.71 900"/><polygon class="cls-11" points="1859.71 900 1550.71 632 1514.71 900 1859.71 900"/><polygon class="cls-12" points="1359.71 900 1120.71 639 874.71 900 1359.71 900"/><polygon class="cls-13" points="1092.71 900 1359.71 900 1120.71 639 1092.71 900"/></svg>