<?xml version="1.0" encoding="utf-8"?>
<!-- Generator: Adobe Illustrator 18.0.0, SVG Export Plug-In . SVG Version: 6.00 Build 0)  -->
<!DOCTYPE svg PUBLIC "-//W3C//DTD SVG 1.1//EN" "http://www.w3.org/Graphics/SVG/1.1/DTD/svg11.dtd">
<svg version="1.1" id="Layer_1" xmlns="http://www.w3.org/2000/svg" xmlns:xlink="http://www.w3.org/1999/xlink" x="0px" y="0px"
	 viewBox="0 0 3672.1 567.8" enable-background="new 0 0 3672.1 567.8" xml:space="preserve">
<g>
	<linearGradient id="startwave1_3_" gradientUnits="userSpaceOnUse" x1="1835.995" y1="401.9875" x2="1835.995" y2="-4.414596e-08">
		<stop  offset="0" style="stop-color:#F02B59"/>
		<stop  offset="1" style="stop-color:#EC6A1C"/>
	</linearGradient>
	<path id="startwave1_1_" fill-rule="evenodd" clip-rule="evenodd" fill="url(#startwave1_3_)" d="M0,402h3671.9l0.1-169.8
		c0,0-470.9,42.2-926.1-135.6c-548.1-214-976-9-1036,14.3c-146.1,56.5-367.1,233.8-1099.5,53.8C336.1,87.8,0,140.7,0,140.7V402z"/>
	<linearGradient id="startwave1_4_" gradientUnits="userSpaceOnUse" x1="1836.0255" y1="567.7883" x2="1836.0255" y2="145.0611">
		<stop  offset="0" style="stop-color:#F02B59"/>
		<stop  offset="1" style="stop-color:#EC6A1C"/>
	</linearGradient>
	<path id="startwave1_2_" fill-rule="evenodd" clip-rule="evenodd" fill="url(#startwave1_4_)" d="M0,567.8h3672l0.1-178.6
		c0,0-495.2,44.3-973.9-142.6c-576.4-225-1026.3-9.4-1089.5,15c-153.7,59.4-386,245.9-1156.2,56.6C164.1,237.4,0,273.2,0,273.2
		V567.8z"/>
</g>
</svg>
